<?xml version="1.0" encoding="utf-8"?>
<!-- Generator: Adobe Illustrator 26.0.1, SVG Export Plug-In . SVG Version: 6.00 Build 0)  -->
<svg version="1.1" id="Layer_1" xmlns="http://www.w3.org/2000/svg" xmlns:xlink="http://www.w3.org/1999/xlink" x="0px" y="0px"
	 viewBox="0 0 698.26 408.72" style="enable-background:new 0 0 698.26 408.72;" xml:space="preserve">
<style type="text/css">
	.st0{fill:#FFFFFF;}
	.st1{fill:#3ABAC7;}
	.st2{filter:url(#Adobe_OpacityMaskFilter);}
	.st3{mask:url(#SVGID_1_);}
	.st4{clip-path:url(#SVGID_00000042013862908690655410000015689766578888275862_);fill:#3ABAC7;}
	.st5{filter:url(#Adobe_OpacityMaskFilter_00000178201903902670190710000007970039320984053942_);}
	
		.st6{clip-path:url(#SVGID_00000042013862908690655410000015689766578888275862_);fill:url(#SVGID_00000124150975863863063560000007041468829814515846_);}
	.st7{filter:url(#Adobe_OpacityMaskFilter_00000122710334182209794020000012820615047213653659_);}
	
		.st8{clip-path:url(#SVGID_00000042013862908690655410000015689766578888275862_);fill:url(#SVGID_00000183226140771015417670000016638654568930505867_);}
	.st9{clip-path:url(#SVGID_00000046332165799216219630000000540818783810491307_);fill:#3ABAC7;}
	.st10{filter:url(#Adobe_OpacityMaskFilter_00000170278486650209977740000005808346754719463553_);}
	
		.st11{clip-path:url(#SVGID_00000046332165799216219630000000540818783810491307_);fill:url(#SVGID_00000036221103560556304900000010464812969000704899_);}
	.st12{filter:url(#Adobe_OpacityMaskFilter_00000018214308863471267370000012182937082131097785_);}
	
		.st13{clip-path:url(#SVGID_00000046332165799216219630000000540818783810491307_);fill:url(#SVGID_00000063617036281468582830000016632664683580085641_);}
	.st14{fill:none;stroke:#FFFFFF;stroke-width:10;stroke-miterlimit:10;}
	.st15{fill:#F2F2F2;}
	.st16{fill:#4B4B4B;}
</style>
<rect x="-23.04" y="-22.89" class="st15" width="767.8" height="477.96"/>
<g>
	<g>
		<path class="st16" d="M177.4,356.85c1.03,1.32,1.54,2.82,1.54,4.52c0,2.44-0.85,4.38-2.56,5.81c-1.71,1.43-4.09,2.14-7.14,2.14
			h-13.61V340.1h13.16c2.97,0,5.29,0.68,6.97,2.04c1.68,1.36,2.52,3.21,2.52,5.54c0,1.72-0.45,3.15-1.35,4.29
			c-0.9,1.14-2.1,1.93-3.6,2.37C175.01,354.7,176.37,355.54,177.4,356.85z M162.74,351.92h4.66c1.17,0,2.06-0.26,2.69-0.77
			c0.62-0.51,0.94-1.27,0.94-2.27c0-1-0.31-1.76-0.94-2.29c-0.62-0.53-1.52-0.79-2.69-0.79h-4.66V351.92z M170.76,362.77
			c0.65-0.54,0.98-1.33,0.98-2.35c0-1.03-0.34-1.83-1.02-2.41c-0.68-0.58-1.62-0.87-2.81-0.87h-5.16v6.45h5.25
			C169.18,363.58,170.11,363.31,170.76,362.77z"/>
		<path class="st16" d="M204.75,345.8v5.91h9.53v5.5h-9.53v6.41h10.78v5.7h-17.9V340.1h17.9v5.7H204.75z"/>
		<path class="st16" d="M252.92,364.16h-10.91l-1.75,5.16h-7.45l10.57-29.22h8.24l10.57,29.22h-7.54L252.92,364.16z M251.09,358.67
			l-3.62-10.7l-3.58,10.7H251.09z"/>
		<path class="st16" d="M280.64,346.95c1.25-2.26,2.99-4.02,5.22-5.29c2.23-1.26,4.77-1.89,7.6-1.89c3.47,0,6.44,0.92,8.91,2.75
			c2.47,1.83,4.12,4.33,4.95,7.49h-7.83c-0.58-1.22-1.41-2.15-2.48-2.79c-1.07-0.64-2.28-0.96-3.64-0.96
			c-2.19,0-3.97,0.76-5.33,2.29c-1.36,1.53-2.04,3.57-2.04,6.12s0.68,4.59,2.04,6.12c1.36,1.53,3.14,2.29,5.33,2.29
			c1.36,0,2.57-0.32,3.64-0.96c1.07-0.64,1.89-1.57,2.48-2.79h7.83c-0.83,3.16-2.48,5.66-4.95,7.47c-2.47,1.82-5.44,2.73-8.91,2.73
			c-2.83,0-5.36-0.63-7.6-1.89c-2.23-1.26-3.98-3.02-5.22-5.27c-1.25-2.25-1.87-4.82-1.87-7.7S279.4,349.21,280.64,346.95z"/>
		<path class="st16" d="M351.58,340.1v29.22h-7.12v-12.03h-11.07v12.03h-7.12V340.1h7.12v11.45h11.07V340.1H351.58z"/>
		<path class="st16" d="M395.34,346.95c1.25-2.26,2.99-4.02,5.23-5.29c2.23-1.26,4.77-1.89,7.6-1.89c3.47,0,6.44,0.92,8.91,2.75
			c2.47,1.83,4.12,4.33,4.95,7.49h-7.83c-0.58-1.22-1.41-2.15-2.48-2.79c-1.07-0.64-2.28-0.96-3.64-0.96
			c-2.19,0-3.97,0.76-5.33,2.29c-1.36,1.53-2.04,3.57-2.04,6.12s0.68,4.59,2.04,6.12c1.36,1.53,3.14,2.29,5.33,2.29
			c1.36,0,2.57-0.32,3.64-0.96c1.07-0.64,1.89-1.57,2.48-2.79h7.83c-0.83,3.16-2.48,5.66-4.95,7.47c-2.47,1.82-5.44,2.73-8.91,2.73
			c-2.83,0-5.36-0.63-7.6-1.89c-2.23-1.26-3.98-3.02-5.23-5.27c-1.25-2.25-1.87-4.82-1.87-7.7S394.09,349.21,395.34,346.95z"/>
		<path class="st16" d="M448.09,363.83h9.33v5.5h-16.44V340.1h7.12V363.83z"/>
		<path class="st16" d="M482.39,340.1v17.48c0,1.75,0.43,3.1,1.29,4.04c0.86,0.94,2.12,1.42,3.79,1.42c1.67,0,2.94-0.47,3.83-1.42
			c0.89-0.94,1.33-2.29,1.33-4.04V340.1h7.12v17.44c0,2.61-0.56,4.82-1.67,6.62c-1.11,1.8-2.6,3.16-4.48,4.08
			c-1.87,0.91-3.96,1.37-6.27,1.37c-2.3,0-4.37-0.45-6.18-1.35c-1.82-0.9-3.25-2.26-4.31-4.08c-1.06-1.82-1.58-4.03-1.58-6.64V340.1
			H482.39z"/>
		<path class="st16" d="M541.09,356.85c1.03,1.32,1.54,2.82,1.54,4.52c0,2.44-0.85,4.38-2.56,5.81c-1.71,1.43-4.09,2.14-7.14,2.14
			h-13.61V340.1h13.16c2.97,0,5.29,0.68,6.97,2.04c1.68,1.36,2.52,3.21,2.52,5.54c0,1.72-0.45,3.15-1.35,4.29
			c-0.9,1.14-2.1,1.93-3.6,2.37C538.7,354.7,540.06,355.54,541.09,356.85z M526.44,351.92h4.66c1.17,0,2.06-0.26,2.69-0.77
			c0.62-0.51,0.94-1.27,0.94-2.27c0-1-0.31-1.76-0.94-2.29c-0.62-0.53-1.52-0.79-2.69-0.79h-4.66V351.92z M534.45,362.77
			c0.65-0.54,0.98-1.33,0.98-2.35c0-1.03-0.34-1.83-1.02-2.41c-0.68-0.58-1.62-0.87-2.81-0.87h-5.16v6.45h5.24
			C532.87,363.58,533.8,363.31,534.45,362.77z"/>
	</g>
	<g>
		<path class="st16" d="M164.8,262.81c-1.05,0.42-2.51,0.42-4.39,0c-2.3-0.21-4.71-0.94-7.22-2.2c-1.88-1.04-4.08-2.72-6.59-5.02
			c-3.76-3.76-7.64-9.3-11.61-16.63c-1.05-1.88-2.82-5.23-5.33-10.04l-3.14-6.9c-1.68-3.55-3.56-7.63-5.65-12.23
			c-6.07-13.81-12.66-30.22-19.77-49.26c-0.42-1.04-0.94-2.4-1.57-4.08c-0.63-1.67-1.05-2.82-1.25-3.45l-4.39,108.87H76.01
			L64.09,44.76h38.59c12.76,46.86,22.8,81.78,30.12,104.79c6.06,19.04,11.61,35.25,16.63,48.63c1.67,4.39,3.24,8.37,4.71,11.92
			l2.2,5.02l0.31,1.25c1.25,2.72,2.3,4.5,3.14,5.33c0.42,0.21,0.83,0.11,1.25-0.31c0.42-0.21,0.73-0.52,0.94-0.94
			c0.63-0.63,1.15-1.57,1.57-2.82c0.42-1.04,0.83-2.09,1.25-3.14c1.04-3.76,2.09-7.84,3.14-12.24c3.14-13.8,6.27-30.64,9.41-50.51
			c5.02-31.79,9.41-66.2,13.18-103.22l17.88,1.25c-2.09,37.65-4.81,72.68-8.16,105.1c-2.3,20.71-4.71,38.28-7.22,52.71
			c-1.05,4.81-1.99,9.21-2.82,13.18c-1.88,8.16-3.87,14.96-5.96,20.39c-2.51,6.49-5.65,11.72-9.41,15.69
			c-2.09,2.09-4.19,3.66-6.27,4.71C168.14,261.76,166.88,262.18,164.8,262.81z"/>
		<path class="st16" d="M201.82,238.33c12.34-4.81,24.47-15.37,36.39-31.69c-4.39-0.21-9.1-0.42-14.12-0.63
			c0-2.09,0.16-5.54,0.47-10.35c0.31-4.81,0.47-8.26,0.47-10.35c0-0.21,9.3-1.04,27.92-2.51c4.18-7.74,8.16-16,11.92-24.79
			c6.9-16.1,13.28-34.2,19.14-54.28c4.18-14.43,7.74-28.44,10.67-42.04c-3.35-0.83-7.01-1.25-10.98-1.25
			c-4.6,0-9.52,0.52-14.75,1.57c-2.72,0.63-5.13,1.25-7.22,1.88c-2.3,0.63-4.6,1.36-6.9,2.2l-7.22-16.31
			c5.23-2.51,10.87-4.6,16.94-6.28c6.27-1.88,12.24-3.03,17.88-3.45c7.32-0.63,13.91-0.31,19.77,0.94l5.33,1.57
			c2.93,1.25,4.81,2.2,5.65,2.82c2.93,1.68,5.75,4.71,8.47,9.1c2.72,4.19,5.54,9.83,8.47,16.94c1.67,4.81,3.55,10.35,5.65,16.63
			c3.14,9.41,6.38,20.39,9.73,32.94c4.18,15.69,8.57,33.57,13.18,53.65c9.2-0.83,14.01-1.25,14.43-1.25
			c0,4.39,0.05,10.88,0.16,19.45c0.1,8.58,0.26,14.96,0.47,19.14c-2.93,0-5.23-0.1-6.9-0.31c2.93,14.64,5.65,28.55,8.16,41.73
			l-38.28,5.33c-1.88-17.15-3.87-33.26-5.96-48.32c-5.23-0.21-11.09-0.47-17.57-0.78c-6.49-0.31-13.23-0.63-20.24-0.94
			c-7.01-0.31-12.92-0.47-17.73-0.47c-2.93,6.07-5.96,11.72-9.1,16.94c-6.27,10.25-12.86,19.14-19.77,26.67
			c-9,9.41-18.51,16.63-28.55,21.65L201.82,238.33z M291.24,168.06c-1.25,3.77-2.72,7.84-4.39,12.24
			c11.92-1.04,25.1-2.09,39.53-3.14c-2.72-17.57-5.54-34.3-8.47-50.2c-2.3-12.13-4.5-22.8-6.59-32c-0.21-0.83-0.74-2.61-1.57-5.33
			c-1.05,6.7-2.2,13.28-3.45,19.77C302.11,130.93,297.09,150.49,291.24,168.06z"/>
		<path class="st16" d="M391.94,196.92c-1.68-21.54-2.82-47.89-3.45-79.06c-0.42-26.56-0.42-52.81,0-78.75l38.59,2.2
			c-2.09,25.31-3.76,51.04-5.02,77.18c-1.68,30.54-2.3,56.27-1.88,77.18c0.21,15.69,0.94,28.03,2.2,37.02
			c0.21,1.25,0.42,2.72,0.63,4.39l0.63,2.51c0.21,1.46,0.52,2.41,0.94,2.82c0.63,0.63,1.67,1.05,3.14,1.25l0.94,0.31l1.88,0.31
			c0.21,0,0.83,0.05,1.88,0.16c1.04,0.11,1.88,0.26,2.51,0.47c9.83,0.63,22.28,0.52,37.33-0.31c12.55-0.83,25.2-1.99,37.96-3.45
			l2.82,17.57c-12.97,2.51-26.04,4.6-39.22,6.27c-15.9,1.88-29.29,2.82-40.16,2.82c-0.63,0-1.25,0-1.88,0
			c-0.63,0-1.31-0.05-2.04-0.16c-0.74-0.11-1.21-0.16-1.41-0.16h-2.82c-1.05-0.21-2.3-0.42-3.76-0.63
			c-3.35-0.63-5.76-1.25-7.22-1.88c-3.56-1.47-5.76-2.51-6.59-3.14c-3.14-2.93-5.75-7.22-7.84-12.86l-0.94-3.76l-0.94-2.82
			c-0.42-1.88-0.84-3.66-1.25-5.33C395.08,227.25,393.4,213.86,391.94,196.92z"/>
		<path class="st16" d="M509.28,159.59c-1.88-17.36-2.93-36.5-3.14-57.41c0-9.41,0.1-19.03,0.31-28.86l0.31-14.12l0.31-7.22v-3.45
			v-1.88v-0.63c0.63,0,1.99,0,4.08,0c3.97,0.21,8.05,0.31,12.24,0.31h22.28v1.25v0.63v0.94l-0.31,1.88l-0.31,3.45l-0.31,6.9
			l-1.25,13.8c-0.42,9.41-0.84,18.51-1.25,27.3c-0.63,20.08-0.52,38.38,0.31,54.9c1.04,20.92,3.34,38.28,6.9,52.08
			c2.51,9.21,5.33,16.42,8.47,21.65c1.67,2.51,3.55,4.6,5.65,6.27c1.46,1.05,3.24,1.78,5.33,2.2c2.3,0,4.39-0.42,6.27-1.25
			c2.51-1.04,4.91-2.72,7.22-5.02c4.39-4.39,8.47-10.87,12.23-19.45c6.06-13.38,10.87-30.22,14.43-50.51
			c2.93-18.2,4.39-36.18,4.39-53.96c-0.21-10.04-0.84-18.93-1.88-26.67c-0.63-4.6-1.47-8.68-2.51-12.24
			c-0.63-2.09-1.25-3.77-1.88-5.02c0-0.21-0.42-1.04-1.25-2.51l11.61-13.49c2.3,1.88,4.29,4.5,5.96,7.84
			c1.25,2.09,2.3,4.6,3.14,7.53c1.46,4.39,2.72,9.31,3.76,14.75c1.67,8.58,2.82,18.3,3.45,29.18c0.83,19.04,0.1,38.28-2.2,57.73
			c-2.72,22.59-7.22,41.73-13.49,57.41c-4.6,11.51-10.04,20.81-16.31,27.92c-4.19,4.81-9.1,8.68-14.75,11.61
			c-6.07,3.14-12.66,4.6-19.77,4.39c-7.53-0.42-14.33-2.72-20.39-6.9c-5.02-3.34-9.52-7.84-13.49-13.49
			c-5.23-7.53-9.72-17.36-13.49-29.49C515.14,202.25,511.58,182.8,509.28,159.59z"/>
	</g>
	<g>
		<path class="st16" d="M294.6,298.15c5.35,0,8.08,2.51,10.49,4.72c2.2,2.02,3.94,3.62,7.67,3.62c3.73,0,5.47-1.6,7.68-3.62
			c2.41-2.21,5.14-4.72,10.49-4.72c5.35,0,8.09,2.51,10.5,4.72c2.2,2.02,3.95,3.62,7.68,3.62c3.73,0,5.47-1.6,7.68-3.62
			c2.41-2.21,5.14-4.72,10.49-4.72c5.36,0,8.09,2.51,10.5,4.72c2.21,2.02,3.95,3.62,7.69,3.62c3.74,0,5.48-1.6,7.69-3.62
			c2.41-2.21,5.14-4.72,10.5-4.72c1.15,0,2.08,0.93,2.08,2.08c0,1.15-0.93,2.08-2.08,2.08c-3.74,0-5.48,1.6-7.69,3.62
			c-2.41,2.21-5.14,4.72-10.5,4.72c-5.36,0-8.09-2.51-10.5-4.72c-2.21-2.02-3.95-3.62-7.68-3.62c-3.73,0-5.47,1.6-7.68,3.62
			c-2.41,2.21-5.14,4.72-10.49,4.72c-5.35,0-8.09-2.51-10.5-4.72c-2.2-2.02-3.95-3.62-7.68-3.62c-3.73,0-5.47,1.6-7.68,3.62
			c-2.41,2.21-5.14,4.72-10.49,4.72c-5.35,0-8.08-2.51-10.49-4.72c-2.2-2.02-3.94-3.62-7.68-3.62c-1.15,0-2.08-0.93-2.08-2.08
			C292.52,299.09,293.45,298.15,294.6,298.15z"/>
	</g>
</g>
</svg>
